<svg id="图层_1" data-name="图层 1" xmlns="http://www.w3.org/2000/svg" viewBox="0 0 38.64 51.86"><defs><style>.cls-1{fill:#333;}</style></defs><title>5</title><g id="Page-1"><path id="Path" class="cls-1" d="M25.22,53C14.32,53,6.48,46.55,6.16,37.37H16c.6,4.29,4.39,7.24,9.32,7.24a9,9,0,0,0,9.39-9.39c0-5.62-3.83-9.56-9.32-9.56a10.14,10.14,0,0,0-8.89,4.68H7L9.47,1.16H41.74V9.6H17.8L16.64,23.48h.21c2.07-3.41,6.12-5.55,11.29-5.55,9.7,0,16.66,7.14,16.66,17C44.8,45.7,36.86,53,25.22,53Z" transform="translate(-6.16 -1.16)"/></g></svg>