<svg id="图层_1" data-name="图层 1" xmlns="http://www.w3.org/2000/svg" viewBox="0 0 40.57 53.05"><defs><style>.cls-1{fill:#333;}</style></defs><title>6</title><g id="Page-1"><path id="Combined-Shape" class="cls-1" d="M26.17,53.05c-7.28,0-13.29-3.3-16.84-9.35-2.81-4.29-4.25-10-4.25-16.77C5.07,10.13,13.23,0,26.34,0,36,0,43.57,5.73,45,14H34.54c-1-3.37-4.29-5.62-8.26-5.62-7.07,0-11.36,6.79-11.11,18.25h.21c2-5,7-8.26,13.5-8.26A16.29,16.29,0,0,1,45.64,35.12C45.64,45.56,37.52,53.05,26.17,53.05Zm-.11-8.47a9.12,9.12,0,0,0,9.25-9.14,8.87,8.87,0,0,0-9.21-9.07,8.92,8.92,0,0,0-9.28,9A9.15,9.15,0,0,0,26.06,44.58Z" transform="translate(-5.07)"/></g></svg>