<svg id="图层_1" data-name="图层 1" xmlns="http://www.w3.org/2000/svg" viewBox="0 0 41.13 52.98"><defs><style>.cls-1{fill:#333;}</style></defs><title>8</title><g id="Page-1"><path id="Combined-Shape" class="cls-1" d="M26.11,53C13.8,53,5.54,46.93,5.54,38.14c0-6.68,4.85-11.85,11.92-13v-.21C11.55,23.55,7.58,19,7.58,13.43,7.58,5.7,15.25,0,26.11,0S44.6,5.66,44.6,13.46c0,5.52-3.94,10.05-9.84,11.46v.21c7.1,1.2,11.92,6.36,11.92,13C46.68,47,38.31,53,26.11,53Zm0-7.73c5.59,0,9.46-3.34,9.46-7.91s-3.87-7.91-9.46-7.91-9.49,3.34-9.49,7.91S20.52,45.28,26.11,45.28Zm0-23.55c4.68,0,8-3,8-7s-3.34-7-8-7-8,3-8,7S21.4,21.73,26.11,21.73Z" transform="translate(-5.54 -0.04)"/></g></svg>