<svg id="图层_1" data-name="图层 1" xmlns="http://www.w3.org/2000/svg" viewBox="0 0 40.71 53.02"><defs><style>.cls-1{fill:#333;}</style></defs><title>9</title><g id="Page-1"><path id="_3456789" data-name="3456789" class="cls-1" d="M24.78,53C15.07,53,7.45,47.25,6,39H16.52c1,3.41,4.36,5.66,8.44,5.66,7,0,11.25-6.64,11-18.28h-.21c-1.83,5-6.82,8.3-13.5,8.3A16.39,16.39,0,0,1,5.37,17.89C5.37,7.45,13.6,0,24.92,0c7.31,0,13.39,3.27,16.91,9.28,2.81,4.32,4.25,10,4.25,16.8C46.08,42.89,38.14,53,24.78,53ZM25,26.65a9,9,0,0,0,9.28-9,9.08,9.08,0,0,0-9.21-9.18,9.13,9.13,0,0,0-9.32,9.11A8.94,8.94,0,0,0,25,26.65Z" transform="translate(-5.37)"/></g></svg>