<?xml version="1.0" encoding="utf-8"?>
<!-- Generator: Adobe Illustrator 19.2.1, SVG Export Plug-In . SVG Version: 6.00 Build 0)  -->
<svg version="1.1" id="图层_1" xmlns="http://www.w3.org/2000/svg" xmlns:xlink="http://www.w3.org/1999/xlink" x="0px" y="0px"
	 viewBox="0 0 36 36" style="enable-background:new 0 0 36 36;" xml:space="preserve">
<title>ic_car</title>
<desc>Created with Sketch.</desc>
<g id="Page-1">
	<g id="iPhone-8" transform="translate(-96.000000, -108.000000)">
		<g id="ic_car" transform="translate(96.000000, 108.000000)">
			<g id="Combined-Shape">
				<path d="M31.2,32h-4.8c-1.2,0-2.2-1-2.3-2.2l-0.5-2.1H12.4l-0.5,2C11.9,31,10.9,32,9.6,32H4.8c-1.3,0-2.3-1-2.3-2.3V18.4
					l-0.7-0.2c-1-0.3-1.5-1.4-1.6-1.7C0,16,0,15.5,0,15.2c0-0.9,0.7-1.6,1.7-1.6h2.2C4.7,6.9,5.7,4,18,4s13.3,2.9,14.1,9.6h2.2
					c0.9,0,1.7,0.7,1.7,1.6c0,0.3,0,0.8-0.2,1.3c-0.1,0.3-0.6,1.4-1.6,1.7l-0.7,0.2v11.3C33.5,31,32.5,32,31.2,32z M11.6,25.8h12.8
					c0.5,0,0.9,0.3,1,0.8l0.7,2.9c0,0.1,0,0.1,0,0.2c0,0.2,0.1,0.3,0.3,0.3h4.8c0.2,0,0.3-0.1,0.3-0.3v-12c0-0.4,0.3-0.8,0.7-1
					l1.4-0.4c0,0,0.2-0.2,0.3-0.4c0-0.1,0-0.2,0.1-0.3h-2.8c-0.5,0-0.9-0.4-1-0.9L30.2,14c-0.8-6-1-8-12.2-8C6.9,6,6.6,8,5.8,14
					l-0.1,0.7c-0.1,0.5-0.5,0.9-1,0.9H2c0,0.1,0,0.2,0.1,0.3c0.1,0.2,0.2,0.4,0.3,0.5l1.4,0.4c0.4,0.1,0.7,0.5,0.7,1v12
					c0,0.2,0.1,0.3,0.3,0.3h4.8c0.2,0,0.3-0.1,0.3-0.3c0-0.1,0-0.1,0-0.2l0.7-2.9C10.7,26.1,11.1,25.8,11.6,25.8z"/>
			</g>
			<g id="Oval">
				<path d="M24.8,16H11.2c-0.9,0-2.2-0.1-2.8-1c-0.6-0.7-0.4-1.6-0.2-2.3C9.3,8.9,10.4,8,18,8c7.6,0,8.7,0.9,9.8,4.7
					c0.2,0.7,0.4,1.6-0.2,2.3C27,15.9,25.7,16,24.8,16z M10,13.9c0,0,0.3,0.1,1.2,0.1h13.6c0.9,0,1.2-0.1,1.2-0.2c0,0,0-0.2-0.1-0.5
					c-0.8-2.8-1-3.3-7.9-3.3s-7.1,0.5-7.9,3.3C10,13.7,10,13.8,10,13.9C10,13.9,10,13.9,10,13.9z M10,13.9L10,13.9L10,13.9z"/>
			</g>
			<g id="Path-10">
				<path d="M12.5,24h-5C6.7,24,6,23.3,6,22.5v-2C6,19.7,6.7,19,7.5,19c0,0,0.2,0,0.2,0c0,0,0,0,0,0l5,0.7c0.7,0.1,1.3,0.7,1.3,1.5
					v1.3C14,23.3,13.3,24,12.5,24z M8,22h4v-0.4l-4-0.5V22z M12.4,21.7C12.4,21.7,12.4,21.7,12.4,21.7L12.4,21.7z"/>
			</g>
			<g id="Path-10_1_">
				<path d="M28.5,24h-5c-0.8,0-1.5-0.7-1.5-1.5v-1.3c0-0.7,0.6-1.4,1.3-1.5l5-0.7c0,0,0,0,0,0c0,0,0.2,0,0.2,0
					c0.8,0,1.5,0.7,1.5,1.5v2C30,23.3,29.3,24,28.5,24z M24,22h4v-0.9l-4,0.5V22z M23.6,21.7L23.6,21.7
					C23.6,21.7,23.6,21.7,23.6,21.7z"/>
			</g>
		</g>
	</g>
</g>
</svg>
