<?xml version="1.0" encoding="utf-8"?>
<!-- Generator: Adobe Illustrator 19.2.1, SVG Export Plug-In . SVG Version: 6.00 Build 0)  -->
<svg version="1.1" id="图层_1" xmlns="http://www.w3.org/2000/svg" xmlns:xlink="http://www.w3.org/1999/xlink" x="0px" y="0px"
	 viewBox="0 0 36 36" style="enable-background:new 0 0 36 36;" xml:space="preserve">
<title>ic_in</title>
<desc>Created with Sketch.</desc>
<g>
	<path d="M27,26.5c-1.7,0-3,1.3-3,3s1.3,3,3,3s3-1.3,3-3S28.7,26.5,27,26.5z M27,30.5c-0.6,0-1-0.4-1-1s0.4-1,1-1s1,0.4,1,1
		S27.6,30.5,27,30.5z"/>
	<path d="M33,19h-0.8l-1.3-3.5c-0.4-1.2-1.6-2-2.8-2H16c-1.9,0-3.6,1.1-4.5,2.8l-2.1,4.2H6c-0.1,0-0.1,0-0.2,0l-0.2,0
		C2.4,21.2,0,24.1,0,27.4v2.1c0,0.6,0.4,1,1,1h4.5c0.6,0,1-0.4,1-1s-0.4-1-1-1H2v-1.1C2,25,3.7,23,6,22.5l4,0h8
		c0.4,0,0.7-0.2,0.9-0.6l2-4c0.2-0.3,0.1-0.7,0-1c-0.2-0.3-0.5-0.5-0.9-0.5h-6.3c0.6-0.6,1.4-1,2.2-1h12.1c0.4,0,0.8,0.3,0.9,0.7
		l1.5,4.2c0.1,0.4,0.5,0.7,0.9,0.7H33c0.6,0,1,0.4,1,1v6.5h-1.5c-0.6,0-1,0.4-1,1s0.4,1,1,1H35c0.6,0,1-0.4,1-1V22
		C36,20.3,34.7,19,33,19z M18.4,18.5l-1,2h-5.8l1-2H18.4z"/>
	<path d="M21.5,28.5H17c-0.6,0-1,0.4-1,1s0.4,1,1,1h4.5c0.6,0,1-0.4,1-1S22.1,28.5,21.5,28.5z"/>
	<path d="M11,26.5c-1.7,0-3,1.3-3,3s1.3,3,3,3s3-1.3,3-3S12.7,26.5,11,26.5z M11,30.5c-0.6,0-1-0.4-1-1s0.4-1,1-1s1,0.4,1,1
		S11.6,30.5,11,30.5z"/>
	<path d="M8.3,13.2c0.2,0.2,0.4,0.3,0.7,0.3c0.1,0,0.3,0,0.4-0.1c0.4-0.2,0.6-0.5,0.6-0.9v-1h8c0.6,0,1-0.4,1-1v-4c0-0.6-0.4-1-1-1
		h-8v-1c0-0.4-0.2-0.8-0.6-0.9C9,3.4,8.6,3.5,8.3,3.8l-4,4c-0.4,0.4-0.4,1,0,1.4L8.3,13.2z M8.1,6.9C8.2,7.2,8.6,7.5,9,7.5h8v2H9
		c-0.4,0-0.8,0.3-0.9,0.6L6.4,8.5L8.1,6.9z"/>
</g>
</svg>
