<?xml version="1.0" encoding="utf-8"?>
<!-- Generator: Adobe Illustrator 19.2.1, SVG Export Plug-In . SVG Version: 6.00 Build 0)  -->
<svg version="1.1" id="图层_1" xmlns="http://www.w3.org/2000/svg" xmlns:xlink="http://www.w3.org/1999/xlink" x="0px" y="0px"
	 viewBox="0 0 48 48" style="enable-background:new 0 0 48 48;" xml:space="preserve">
<title>ic_order</title>
<desc>Created with Sketch.</desc>
<g>
	<path d="M39,5.5h-4c-0.8,0-1.5,0.7-1.5,1.5s0.7,1.5,1.5,1.5h4c0.3,0,0.5,0.2,0.5,0.5v34c0,0.3-0.2,0.5-0.5,0.5H9
		c-0.3,0-0.5-0.2-0.5-0.5V9c0-0.3,0.2-0.5,0.5-0.5h4c0.8,0,1.5-0.7,1.5-1.5S13.8,5.5,13,5.5H9C7.1,5.5,5.5,7.1,5.5,9v34
		c0,1.9,1.6,3.5,3.5,3.5h30c1.9,0,3.5-1.6,3.5-3.5V9C42.5,7.1,40.9,5.5,39,5.5z"/>
	<path d="M18,10.5h12c0.8,0,1.5-0.7,1.5-1.5V3c0-0.8-0.7-1.5-1.5-1.5H18c-0.8,0-1.5,0.7-1.5,1.5v6C16.5,9.8,17.2,10.5,18,10.5z
		 M19.5,4.5h9v3h-9V4.5z"/>
	<path d="M12.4,32.4c0.8,0.3,1.6-0.1,1.9-0.8l0.4-1.1h4.4l0.4,1.1c0.2,0.6,0.8,0.9,1.4,0.9c0.2,0,0.4,0,0.6-0.1
		c0.8-0.3,1.1-1.2,0.8-1.9l-4-10c-0.2-0.6-0.8-0.9-1.4-0.9s-1.2,0.4-1.4,0.9l-4,10C11.3,31.2,11.7,32.1,12.4,32.4z M18,27.5h-2
		l1-2.5L18,27.5z"/>
	<path d="M24.5,21v10c0,0.8,0.7,1.5,1.5,1.5s1.5-0.7,1.5-1.5V21c0-0.8-0.7-1.5-1.5-1.5S24.5,20.2,24.5,21z"/>
	<path d="M31.5,31c0,0.8,0.7,1.5,1.5,1.5s1.5-0.7,1.5-1.5V21c0-0.8-0.7-1.5-1.5-1.5s-1.5,0.7-1.5,1.5V31z"/>
</g>
</svg>
