<?xml version="1.0" encoding="utf-8"?>
<!-- Generator: Adobe Illustrator 19.2.1, SVG Export Plug-In . SVG Version: 6.00 Build 0)  -->
<svg version="1.1" id="图层_1" xmlns="http://www.w3.org/2000/svg" xmlns:xlink="http://www.w3.org/1999/xlink" x="0px" y="0px"
	 viewBox="0 0 36 36" style="enable-background:new 0 0 36 36;" xml:space="preserve">
<g>
	<path d="M9,26.5c-1.7,0-3,1.3-3,3s1.3,3,3,3s3-1.3,3-3S10.7,26.5,9,26.5z M9,30.5c-0.6,0-1-0.4-1-1c0-0.6,0.4-1,1-1s1,0.4,1,1
		C10,30.1,9.6,30.5,9,30.5z"/>
	<path d="M30.4,20.6h-0.2c-0.1,0-0.1,0-0.2,0h-3.4l-2.1-4.2c-0.9-1.8-2.6-2.9-4.5-2.9H7.9c-1.3,0-2.4,0.8-2.8,2L3.8,19H3
		c-1.7,0-3,1.3-3,3v7.5c0,0.6,0.4,1,1,1h2.5c0.6,0,1-0.4,1-1c0-0.6-0.4-1-1-1H2V22c0-0.6,0.4-1,1-1h1.5c0.4,0,0.8-0.3,0.9-0.7
		L7,16.2c0.1-0.4,0.5-0.7,0.9-0.7H20c0.9,0,1.7,0.4,2.2,1H16c-0.3,0-0.7,0.2-0.9,0.5c-0.2,0.3-0.2,0.7,0,1l2,4
		c0.2,0.3,0.5,0.6,0.9,0.6h8h3.9H30c2.3,0.5,4,2.5,4,4.9v1h-3.5c-0.6,0-1,0.4-1,1c0,0.6,0.4,1,1,1H35c0.6,0,1-0.4,1-1v-2.1
		C36,24.1,33.6,21.2,30.4,20.6z M18.6,20.5l-1-2h5.8l1,2H18.6z"/>
	<path d="M19,28.5h-4.5c-0.6,0-1,0.4-1,1c0,0.6,0.4,1,1,1H19c0.6,0,1-0.4,1-1C20,28.9,19.6,28.5,19,28.5z"/>
	<path d="M25,26.5c-1.7,0-3,1.3-3,3s1.3,3,3,3s3-1.3,3-3S26.7,26.5,25,26.5z M25,30.5c-0.6,0-1-0.4-1-1c0-0.6,0.4-1,1-1s1,0.4,1,1
		C26,30.1,25.6,30.5,25,30.5z"/>
	<path d="M18,11.5h8v1c0,0.4,0.2,0.8,0.6,0.9c0.1,0.1,0.3,0.1,0.4,0.1c0.3,0,0.5-0.1,0.7-0.3l4-4c0.4-0.4,0.4-1,0-1.4l-4-4
		c-0.3-0.3-0.7-0.4-1.1-0.2C26.2,3.7,26,4.1,26,4.5v1h-8c-0.6,0-1,0.4-1,1v4C17,11.1,17.4,11.5,18,11.5z M19,7.5h8
		c0.4,0,0.8-0.3,0.9-0.6l1.7,1.6L28,10.1c-0.2-0.3-0.6-0.6-1-0.6h-8V7.5z"/>
</g>
</svg>
