<?xml version="1.0" encoding="utf-8"?>
<!-- Generator: Adobe Illustrator 19.2.1, SVG Export Plug-In . SVG Version: 6.00 Build 0)  -->
<svg version="1.1" id="图层_1" xmlns="http://www.w3.org/2000/svg" xmlns:xlink="http://www.w3.org/1999/xlink" x="0px" y="0px"
	 viewBox="0 0 48 48" style="enable-background:new 0 0 48 48;" xml:space="preserve">
<title>ic_sreach</title>
<desc>Created with Sketch.</desc>
<path d="M45.6,43.9l-9-9c3.1-3.4,4.9-8,4.9-12.9c0-10.8-8.7-19.5-19.5-19.5C11.2,2.5,2.5,11.2,2.5,22S11.2,41.5,22,41.5
	c4.7,0,9-1.7,12.4-4.5l9,9c0.3,0.3,0.7,0.4,1.1,0.4s0.8-0.1,1.1-0.4C46.1,45.5,46.1,44.5,45.6,43.9z M5.5,22
	c0-9.1,7.4-16.5,16.5-16.5c9.1,0,16.5,7.4,16.5,16.5S31.1,38.5,22,38.5C12.9,38.5,5.5,31.1,5.5,22z"/>
</svg>
