<?xml version="1.0" encoding="utf-8"?>
<!-- Generator: Adobe Illustrator 19.2.1, SVG Export Plug-In . SVG Version: 6.00 Build 0)  -->
<svg version="1.1" id="图层_1" xmlns="http://www.w3.org/2000/svg" xmlns:xlink="http://www.w3.org/1999/xlink" x="0px" y="0px"
	 viewBox="0 0 36 36" style="enable-background:new 0 0 36 36;" xml:space="preserve">
<title>ic_user</title>
<desc>Created with Sketch.</desc>
<path d="M21.1,18.4C24,17.1,26,14.3,26,11c0-4.4-3.6-8-8-8s-8,3.6-8,8c0,3.3,2,6.1,4.9,7.4C8.7,19.8,4,25.4,4,32c0,0.6,0.4,1,1,1
	s1-0.4,1-1c0-6.6,5.4-12,12-12c6.6,0,12,5.4,12,12c0,0.6,0.4,1,1,1s1-0.4,1-1C32,25.4,27.3,19.8,21.1,18.4z M12,11c0-3.3,2.7-6,6-6
	s6,2.7,6,6s-2.7,6-6,6S12,14.3,12,11z"/>
</svg>
